<?xml version="1.0" encoding="UTF-8" standalone="no"?>
<!-- Created with Inkscape (http://www.inkscape.org/) -->

<svg
   xmlns:dc="http://purl.org/dc/elements/1.1/"
   xmlns:cc="http://creativecommons.org/ns#"
   xmlns:rdf="http://www.w3.org/1999/02/22-rdf-syntax-ns#"
   xmlns:svg="http://www.w3.org/2000/svg"
   xmlns="http://www.w3.org/2000/svg"
   xmlns:sodipodi="http://sodipodi.sourceforge.net/DTD/sodipodi-0.dtd"
   xmlns:inkscape="http://www.inkscape.org/namespaces/inkscape"
   id="svg2"
   version="1.1"
   inkscape:version="0.91 r13725"
   xml:space="preserve"
   width="611.25"
   height="412.5"
   viewBox="0 0 611.25 412.5"
   sodipodi:docname="Paris Airport (depuis 2016).svg"><metadata
     id="metadata8"><rdf:RDF><cc:Work
         rdf:about=""><dc:format>image/svg+xml</dc:format><dc:type
           rdf:resource="http://purl.org/dc/dcmitype/StillImage" /><dc:title></dc:title></cc:Work></rdf:RDF></metadata><defs
     id="defs6"><clipPath
       clipPathUnits="userSpaceOnUse"
       id="clipPath16"><path
         d="M 0,330 489,330 489,0 0,0 0,330 Z"
         id="path18"
         inkscape:connector-curvature="0" /></clipPath><clipPath
       clipPathUnits="userSpaceOnUse"
       id="clipPath60"><path
         d="M 0,330 489,330 489,0 0,0 0,330 Z"
         id="path62"
         inkscape:connector-curvature="0" /></clipPath></defs><sodipodi:namedview
     pagecolor="#ffffff"
     bordercolor="#666666"
     borderopacity="1"
     objecttolerance="10"
     gridtolerance="10"
     guidetolerance="10"
     inkscape:pageopacity="0"
     inkscape:pageshadow="2"
     inkscape:window-width="1920"
     inkscape:window-height="1017"
     id="namedview4"
     showgrid="false"
     inkscape:zoom="0.57212121"
     inkscape:cx="305.625"
     inkscape:cy="206.25"
     inkscape:window-x="-8"
     inkscape:window-y="-8"
     inkscape:window-maximized="1"
     inkscape:current-layer="g10" /><g
     id="g10"
     inkscape:groupmode="layer"
     inkscape:label="parisaeroport_logo"
     transform="matrix(1.25,0,0,-1.25,0,412.5)"><g
       clip-path="url(#clipPath16)"
       id="g14"><g
         transform="translate(199.3133,19.5704)"
         id="g20"><path
           inkscape:connector-curvature="0"
           id="path22"
           style="fill:#e54f39;fill-opacity:1;fill-rule:nonzero;stroke:none"
           d="M 0,0 6.542,16.037 13.075,0.005 C 9.481,2.24 3.836,1.965 0,0 m 9.327,20.332 -5.647,0 -14.935,-33.222 5.716,0 c 4.009,14.384 21.209,12.93 24.327,0 l 5.551,0 -15.012,33.222 z" /></g><g
         transform="translate(257.3687,35.3033)"
         id="g24"><path
           inkscape:connector-curvature="0"
           id="path26"
           style="fill:#e54f39;fill-opacity:1;fill-rule:nonzero;stroke:none"
           d="m 0,0 0,4.33 -24.061,-0.019 0,-32.934 24.061,0 0,4.331 -19.233,0 0,10.058 17.202,0 0,4.444 -17.202,0 0,9.79 L 0,0 Z" /></g><g
         transform="translate(273.7151,23.5037)"
         id="g28"><path
           inkscape:connector-curvature="0"
           id="path30"
           style="fill:#e54f39;fill-opacity:1;fill-rule:nonzero;stroke:none"
           d="m 0,0 0,11.664 9.607,0 c 4.06,0 7.443,-1.799 7.443,-5.412 C 17.05,2.638 14.506,0 9.725,0 L 0,0 Z m 13.725,-3.47 c 4.686,0.869 8.293,4.295 8.224,9.319 C 22.165,11.854 17.51,16.13 9.666,16.13 l -14.213,0 0,-32.953 4.547,0 0,12.493 8.552,0 9.689,-12.493 5.9,0 -10.416,13.353 z" /></g><g
         transform="translate(428.4509,23.5037)"
         id="g32"><path
           inkscape:connector-curvature="0"
           id="path34"
           style="fill:#e54f39;fill-opacity:1;fill-rule:nonzero;stroke:none"
           d="m 0,0 0,11.664 9.607,0 c 4.06,0 7.443,-1.799 7.443,-5.412 C 17.05,2.638 14.506,0 9.725,0 L 0,0 Z m 13.725,-3.47 c 4.686,0.869 8.293,4.295 8.224,9.319 C 22.165,11.854 17.51,16.13 9.666,16.13 l -14.213,0 0,-32.953 4.547,0 0,12.493 8.552,0 9.689,-12.493 5.9,0 -10.416,13.353 z" /></g><g
         transform="translate(247.8624,49.458)"
         id="g36"><path
           inkscape:connector-curvature="0"
           id="path38"
           style="fill:#e54f39;fill-opacity:1;fill-rule:nonzero;stroke:none"
           d="M 0,0 5.6,0 0,-5.6 -5.6,-5.6 0,0 Z" /></g><g
         transform="translate(320.542,10.9062)"
         id="g40"><path
           inkscape:connector-curvature="0"
           id="path42"
           style="fill:#e54f39;fill-opacity:1;fill-rule:nonzero;stroke:none"
           d="m 0,0 c -6.755,0 -12.25,5.496 -12.25,12.251 0,6.755 5.495,12.251 12.25,12.251 6.755,0 12.251,-5.496 12.251,-12.251 C 12.251,5.496 6.755,0 0,0 m 0,29.181 c -9.35,0 -16.93,-7.58 -16.93,-16.93 0,-9.35 7.58,-16.93 16.93,-16.93 9.35,0 16.93,7.58 16.93,16.93 0,9.35 -7.58,16.93 -16.93,16.93" /></g><g
         transform="translate(396.8687,10.9062)"
         id="g44"><path
           inkscape:connector-curvature="0"
           id="path46"
           style="fill:#e54f39;fill-opacity:1;fill-rule:nonzero;stroke:none"
           d="m 0,0 c -6.755,0 -12.25,5.496 -12.25,12.251 0,6.755 5.495,12.251 12.25,12.251 6.755,0 12.251,-5.496 12.251,-12.251 C 12.251,5.496 6.755,0 0,0 m 0,29.181 c -9.35,0 -16.93,-7.58 -16.93,-16.93 0,-9.35 7.58,-16.93 16.93,-16.93 9.35,0 16.93,7.58 16.93,16.93 0,9.35 -7.58,16.93 -16.93,16.93" /></g><g
         transform="translate(359.7924,22.2888)"
         id="g48"><path
           inkscape:connector-curvature="0"
           id="path50"
           style="fill:#e54f39;fill-opacity:1;fill-rule:nonzero;stroke:none"
           d="m 0,0 -7.673,0 0,12.974 7.917,-0.018 c 4.949,0 7.636,-2.544 7.695,-6.389 C 7.97,4.548 6.687,0.154 0,0 m 1.056,17.326 -13.329,0.039 0.039,-32.973 4.6,0 0,11.308 8.458,0 C 8.352,-4.3 13.007,0.162 12.907,6.903 12.814,13.119 8.15,17.355 1.056,17.326" /></g><g
         transform="translate(484.436,39.6335)"
         id="g52"><path
           inkscape:connector-curvature="0"
           id="path54"
           style="fill:#e54f39;fill-opacity:1;fill-rule:nonzero;stroke:none"
           d="m 0,0 -26.633,0 0,-4.466 10.991,0 0,-28.487 4.651,0 0,28.487 L 0,-4.466 0,0 Z" /></g></g><g
       id="g56"><g
         id="g58"
         clip-path="url(#clipPath60)"><g
           id="g64"
           transform="translate(19.4441,22.7989)"><path
             d="m 0,0 -6.105,0 0,10.871 6.445,0 c 5.376,0 6.056,-4.092 6.056,-5.436 C 6.396,1.428 3.168,0 0,0 m 0.437,16.815 -13.542,0 0,-32.933 7,0 0,10.223 7.192,0 c 7.213,0 12.509,4.698 12.509,11.355 0,6.657 -4.867,11.355 -13.159,11.355"
             style="fill:#3a3f71;fill-opacity:1;fill-rule:nonzero;stroke:none"
             id="path66"
             inkscape:connector-curvature="0" /></g><g
           id="g68"
           transform="translate(93.2292,33.6694)"><path
             d="m 0,0 7.121,0 c 4.443,0 6.497,-2.03 6.497,-4.97 0,-3.505 -2.685,-5.208 -6.449,-5.208 L 0,-10.181 0,0 Z m 22.898,-26.989 -9.465,12.054 c 4.274,1.7 7.299,5.204 7.299,9.845 0,7.281 -4.815,11.031 -13.604,11.031 l -14.016,0.004 0,-32.934 6.888,0 0,10.913 6.181,0 8.144,-10.913 8.573,0 z"
             style="fill:#3a3f71;fill-opacity:1;fill-rule:nonzero;stroke:none"
             id="path70"
             inkscape:connector-curvature="0" /></g><path
           d="m 135.672,6.681 -7.134,0 0,32.934 7.134,0 0,-32.934 z"
           style="fill:#3a3f71;fill-opacity:1;fill-rule:nonzero;stroke:none"
           id="path72"
           inkscape:connector-curvature="0" /><g
           id="g74"
           transform="translate(50.5814,18.4402)"><path
             d="M 0,0 6.374,15.883 12.407,0 C 8.813,2.235 3.836,1.965 0,0 m 10.286,21.462 -8.219,0 -14.223,-33.222 7.383,0 c 4.186,11.981 18.83,10.354 22.047,0 l 7.629,0 -14.617,33.222 z"
             style="fill:#3a3f71;fill-opacity:1;fill-rule:nonzero;stroke:none"
             id="path76"
             inkscape:connector-curvature="0" /></g><g
           id="g78"
           transform="translate(173.9549,36.3171)"><path
             d="m 0,0 -3.439,-5.105 c -5.141,3.882 -12.813,3.585 -13.114,0 -0.152,-2.712 2.241,-3.712 7.417,-5.16 7.744,-1.99 11.458,-5.44 10.157,-11.771 -1.193,-5.014 -4.765,-6.937 -10.157,-7.845 -5.256,-0.69 -10.984,0.912 -15.424,4.676 l 4.192,4.944 c 3.788,-4.337 14.133,-5.306 14.564,-0.712 0.13,2.875 -3.123,4.163 -8.384,5.549 -6.445,1.641 -9.76,5.449 -9.486,10.319 0.625,6.6 6.344,8.85 12.688,8.85 C -6.736,3.745 -3.174,2.151 0,0"
             style="fill:#3a3f71;fill-opacity:1;fill-rule:nonzero;stroke:none"
             id="path80"
             inkscape:connector-curvature="0" /></g></g></g><path
       d="m 247.763,97.75 -4.763,0 0,225.5 4.763,0 0,-225.5 z"
       style="fill:#39467c;fill-opacity:1;fill-rule:nonzero;stroke:none"
       id="path82"
       inkscape:connector-curvature="0" /><g
       id="g84"
       transform="translate(283.5274,89.262)"><path
         d="M 0,0 -4.461,1.988 13.4,62.29 17.393,59.002 0,0 Z"
         style="fill:#39467c;fill-opacity:1;fill-rule:nonzero;stroke:none"
         id="path86"
         inkscape:connector-curvature="0" /></g><g
       id="g88"
       transform="translate(293.631,83.7751)"><path
         d="M 0,0 -4.231,2.48 13.723,48.614 17.341,44.777 0,0 Z"
         style="fill:#39467c;fill-opacity:1;fill-rule:nonzero;stroke:none"
         id="path90"
         inkscape:connector-curvature="0" /></g><g
       id="g92"
       transform="translate(302.9337,77.0709)"><path
         d="M 0,0 -3.981,2.864 14.517,40.15 18.046,36.568 0,0 Z"
         style="fill:#39467c;fill-opacity:1;fill-rule:nonzero;stroke:none"
         id="path94"
         inkscape:connector-curvature="0" /></g><g
       id="g96"
       transform="translate(310.7687,69.0233)"><path
         d="M 0,0 -3.413,3.659 16.381,34.997 19.834,31.548 0,0 Z"
         style="fill:#39467c;fill-opacity:1;fill-rule:nonzero;stroke:none"
         id="path98"
         inkscape:connector-curvature="0" /></g><g
       id="g100"
       transform="translate(272.4171,93.3669)"><path
         d="M 0,0 -4.6,1.299 12.234,87.012 16.493,83.956 0,0 Z"
         style="fill:#39467c;fill-opacity:1;fill-rule:nonzero;stroke:none"
         id="path102"
         inkscape:connector-curvature="0" /></g><g
       id="g104"
       transform="translate(260.3559,96.302)"><path
         d="M 0,0 -4.729,0.576 9.246,146.191 13.766,143.425 0,0 Z"
         style="fill:#39467c;fill-opacity:1;fill-rule:nonzero;stroke:none"
         id="path106"
         inkscape:connector-curvature="0" /></g><g
       id="g108"
       transform="translate(207.2354,89.262)"><path
         d="M 0,0 4.461,1.988 -13.4,62.29 -17.393,59.002 0,0 Z"
         style="fill:#39467c;fill-opacity:1;fill-rule:nonzero;stroke:none"
         id="path110"
         inkscape:connector-curvature="0" /></g><g
       id="g112"
       transform="translate(197.1318,83.7751)"><path
         d="M 0,0 4.231,2.48 -13.723,48.614 -17.341,44.777 0,0 Z"
         style="fill:#39467c;fill-opacity:1;fill-rule:nonzero;stroke:none"
         id="path114"
         inkscape:connector-curvature="0" /></g><g
       id="g116"
       transform="translate(187.829,77.0709)"><path
         d="M 0,0 3.981,2.864 -14.517,40.15 -18.046,36.568 0,0 Z"
         style="fill:#39467c;fill-opacity:1;fill-rule:nonzero;stroke:none"
         id="path118"
         inkscape:connector-curvature="0" /></g><g
       id="g120"
       transform="translate(179.994,69.0233)"><path
         d="M 0,0 3.413,3.659 -16.381,34.997 -19.834,31.548 0,0 Z"
         style="fill:#39467c;fill-opacity:1;fill-rule:nonzero;stroke:none"
         id="path122"
         inkscape:connector-curvature="0" /></g><g
       id="g124"
       transform="translate(218.3457,93.3669)"><path
         d="M 0,0 4.6,1.299 -12.234,87.012 -16.493,83.956 0,0 Z"
         style="fill:#39467c;fill-opacity:1;fill-rule:nonzero;stroke:none"
         id="path126"
         inkscape:connector-curvature="0" /></g><g
       id="g128"
       transform="translate(230.4069,96.302)"><path
         d="M 0,0 4.729,0.576 -9.246,146.191 -13.766,143.425 0,0 Z"
         style="fill:#39467c;fill-opacity:1;fill-rule:nonzero;stroke:none"
         id="path130"
         inkscape:connector-curvature="0" /></g></g></svg>