<?xml version="1.0" standalone="no"?>
<!DOCTYPE svg PUBLIC "-//W3C//DTD SVG 20010904//EN"
 "http://www.w3.org/TR/2001/REC-SVG-20010904/DTD/svg10.dtd">
<svg version="1.0" xmlns="http://www.w3.org/2000/svg"
 width="700.000000pt" height="700.000000pt" viewBox="0 0 700.000000 700.000000"
 preserveAspectRatio="xMidYMid meet">
<metadata>
Created by potrace 1.14, written by Peter Selinger 2001-2017
</metadata>
<g transform="translate(0.000000,700.000000) scale(0.100000,-0.100000)"
fill="#000000" stroke="none">
<path d="M3278 6995 c-1 -1 -42 -5 -89 -9 -47 -4 -95 -8 -106 -10 -11 -3 -44
-7 -74 -11 -157 -19 -422 -79 -588 -135 -790 -262 -1444 -772 -1882 -1465 -83
-131 -188 -327 -238 -445 -18 -41 -36 -84 -42 -95 -40 -86 -125 -353 -168
-525 -27 -109 -62 -326 -75 -455 -18 -183 -13 -597 8 -765 86 -684 354 -1304
787 -1820 449 -535 1005 -904 1675 -1109 55 -18 109 -33 120 -35 10 -2 57 -13
104 -25 109 -26 200 -43 299 -57 25 -3 57 -8 71 -10 162 -25 683 -25 842 1 13
2 46 7 73 10 69 10 85 12 125 20 340 62 626 154 905 292 118 59 210 109 247
135 14 10 31 18 37 18 6 0 11 3 11 8 0 4 9 12 19 17 43 22 119 71 220 143 290
206 592 514 807 822 216 308 392 672 489 1010 102 353 142 637 142 990 0 237
-10 375 -43 579 -8 52 -17 97 -19 100 -1 3 -6 24 -9 45 -21 129 -101 398 -176
586 -409 1029 -1310 1820 -2378 2089 -121 31 -244 57 -312 66 -19 3 -46 7 -60
10 -13 2 -52 7 -86 11 -33 3 -74 8 -90 10 -32 5 -540 14 -546 9z"/>
</g>
</svg>
