<svg width="19" height="19" viewBox="0 0 19 19" fill="none" xmlns="http://www.w3.org/2000/svg">
<path fill-rule="evenodd" clip-rule="evenodd" d="M18.4497 18.8071H14.7513V12.5079C14.7513 10.7808 14.095 9.81562 12.728 9.81562C11.2409 9.81562 10.464 10.82 10.464 12.5079V18.8071H6.89971V6.80713H10.464V8.42353C10.464 8.42353 11.5356 6.44051 14.0821 6.44051C16.6274 6.44051 18.4497 7.99483 18.4497 11.2095V18.8071ZM2.64755 5.23582C1.43349 5.23582 0.449707 4.24432 0.449707 3.02148C0.449707 1.79864 1.43349 0.807129 2.64755 0.807129C3.86162 0.807129 4.84482 1.79864 4.84482 3.02148C4.84482 4.24432 3.86162 5.23582 2.64755 5.23582ZM0.807132 18.8071H4.52373V6.80713H0.807132V18.8071Z" fill="#222831"/>
</svg>
