<svg width="998" height="998" viewBox="0 0 998 998" fill="none" xmlns="http://www.w3.org/2000/svg">
<circle cx="499" cy="499" r="499" fill="#FEFEFE"/>
<path d="M549.995 738.918C549.814 739.821 549.634 740.71 549.467 741.598C549.813 742.307 549.913 743.11 549.752 743.882C549.591 744.654 549.178 745.35 548.578 745.861C547.939 748.639 547.291 751.384 546.634 754.096C546.949 754.803 547.024 755.593 546.845 756.346C546.667 757.099 546.246 757.772 545.648 758.262L543.773 765.206C544.058 765.686 544.14 766.26 544.002 766.802C543.864 767.343 543.517 767.808 543.037 768.094C542.787 768.983 542.537 769.871 542.301 770.774C542.491 772.025 542.404 773.303 542.047 774.517C541.689 775.731 541.07 776.852 540.232 777.801C534.177 800.186 525.414 821.543 515.845 842.595C501.094 875.523 483.168 906.935 462.323 936.385C461.438 937.773 460.984 939.392 461.018 941.037C512.318 908.626 551.897 865.647 577.909 810.628C604.156 755.082 610.808 696.564 603.85 635.727C614.94 647.815 624.026 661.598 630.764 676.554C638.722 689.149 643.93 703.021 648.249 717.116C656.776 745.07 664.914 773.162 662.359 802.977C662.359 807.99 662.359 812.989 662.247 818.002C662.72 821.793 663.289 825.598 661.511 829.236C661.289 832.444 661.081 835.638 660.859 838.832C661.14 839.56 661.217 840.35 661.083 841.118C660.948 841.887 660.607 842.604 660.095 843.192L659.22 851.372C659.512 851.837 659.621 852.394 659.526 852.935C659.431 853.476 659.139 853.963 658.706 854.302C654.54 885.158 644.957 914.417 632.542 942.856C626.39 956.937 619.252 970.546 611.35 984.877C618.982 983.758 626.476 981.84 633.709 979.156C636.042 976.379 638.458 973.601 642.041 972.296C642.475 972.093 642.951 971.998 643.43 972.018H643.235C643.347 969.338 645.638 968.213 647.193 966.616C688.856 923.86 712.298 872.66 718.658 813.434C721.146 789.753 720.782 765.859 717.575 742.265C717.325 740.349 716.409 738.293 717.964 735.822C725.982 741.522 732.95 748.57 738.559 756.651C753.655 777.981 764.696 801.463 769.306 827.098C773.959 852.969 775.986 879.284 773.639 905.696C773.375 908.626 773.195 911.556 772.861 915.93C781.847 910.209 789.762 905.252 796.595 898.739C797.984 895.628 799.373 892.504 800.761 889.379C810.483 867.675 814.482 844.595 817.107 821.21C817.51 817.586 819.107 815.239 822.023 817.447C831.425 824.598 840.077 832.611 843.743 844.498L849.187 854.538C1031.84 672.277 1038.53 402.363 909.167 215.992C775.75 23.7875 526.58 -50.7695 309.533 38.5906C91.4989 128.353 -29.7944 352.955 6.89634 579.584C25.8111 696.509 80.8611 794.201 169.061 873.146C198.366 899.42 230.88 921.877 265.829 939.982C266.231 939.44 266.634 938.913 267.023 938.371C264.246 935.418 261.436 932.455 258.593 929.484C256.705 927.817 254.705 926.262 253.038 924.443C228.624 899.138 207.467 870.882 190.059 840.332C178.504 820.057 167.922 799.283 161.117 776.815C157.34 769.344 155.687 761.137 152.937 753.319C151.285 748.597 152.576 747.764 157.187 748.486C179.839 752.019 201.931 758.499 222.903 767.761C291.562 797.367 340.682 847.942 377.276 911.931C378.526 914.111 379.79 916.264 381.9 919.916C383.539 906.21 381.9 894.24 380.29 882.325C377.679 862.037 371.513 842.679 363.986 823.723C362.958 821.96 361.805 820.252 360.916 818.419C350.739 797.074 336.394 777.98 318.726 762.262C301.992 747.375 282.841 736.266 263.482 725.434C234.887 709.451 205.529 694.731 179.212 674.97C150.313 653.28 127.995 626.909 120.607 590.346C116.969 572.293 116.024 554.241 120.454 536.188C120.454 524.537 124.482 513.761 127.398 502.583C128.211 502.888 128.935 503.393 129.503 504.05C130.07 504.708 130.464 505.497 130.648 506.346C134.814 528.953 149.035 545.464 165.117 560.045C198.308 590.137 239.318 605.302 280.869 620.077C352.126 645.406 411.814 686.038 447.935 755.249C453.171 765.261 456.879 775.912 460.67 788.688C464.406 775.593 463.726 764.164 464.281 752.874C464.045 752.226 463.873 751.556 463.767 750.875C460.434 696.161 435.326 652.53 395.427 616.383C375.707 598.511 353.862 583.847 330.517 571.113C307.561 558.615 286.313 543.34 265.315 527.828C232.735 503.707 210.029 472.99 201.224 432.928C195.669 407.487 195.586 382.117 203.71 357.065C206.376 342.318 212.042 328.834 220.236 314.725C221.986 325.932 222.736 335.444 225.027 344.567C233.874 379.853 255.899 406.057 283.813 428.026C302.297 442.565 323.337 453.146 342.96 465.922C370.388 483.794 397.316 502.416 422.841 522.954C420.063 507.36 410.814 494.723 403.121 481.447C391.163 460.826 375.707 442.565 363.069 422.374C345.154 393.795 335.211 362.37 330.906 328.903C324.837 281.689 336.197 240.029 368.193 204.382C373.276 198.717 373.387 198.675 366.388 196.842C339.919 189.899 313.088 188.691 285.924 191.148C280.369 191.648 278.411 194.273 276.855 198.758C268.774 221.433 264.55 245.301 264.357 269.372C264.357 283.091 266.481 296.548 269.398 310.629C260.579 302.796 251.927 288.16 246.47 272.26C233.79 235.322 234.874 197.87 241.817 160.084C242.97 153.807 245.47 150.433 251.9 150.364C252.503 150.027 253.129 149.735 253.774 149.489C287.521 139.546 321.823 136.144 357.07 137.616C384.629 138.871 412.001 142.806 438.798 149.364C444.95 150.85 450.546 153.71 457.573 152.377C506.485 143.059 555.439 142.046 603.864 155.071C661.789 170.638 709.701 201.55 745.225 250.5C746.946 252.932 749.428 254.72 752.28 255.582C778.783 264.234 803.924 276.6 826.953 292.312C840.758 301.699 853.556 312.486 865.144 324.501C866.005 325.404 868.338 326.154 866.852 328.209C865.894 329.514 864.672 329.25 863.213 328.695C848.882 323.251 833.897 323.029 818.885 323.64C811.427 323.946 803.844 324.251 795.276 327.653C808.969 332.444 821.301 336.93 832.939 342.929C842.66 347.97 851.992 353.427 859.422 361.634C861.255 363.675 863.269 365.55 861.769 368.897C848.465 398.392 827.759 419.319 795.109 426.248C791.731 426.737 788.651 428.452 786.457 431.067C778.503 440.738 768.016 448.008 756.169 452.063C753.752 452.896 749.53 456.146 748.058 450.272C741.531 411.501 717.423 389.657 680.51 380.186C657.345 374.257 633.875 374.493 610.336 376.854C596.002 378.264 581.781 380.649 567.771 383.991C573.104 386.769 577.825 386.616 582.242 387.491C595.837 390.157 609.503 392.532 622.376 397.864C625.071 398.975 629.528 399.794 625.446 404.349C623.696 414.972 618.502 424.651 617.377 435.483C615.044 457.285 617.669 477.587 634.25 493.806C657.956 516.927 703.438 524.732 730.324 502.527C733.726 499.75 734.837 500.958 735.879 504.416C737.559 510.29 738.934 516.608 736.684 522.149C732.282 532.911 733.824 543.742 734.199 554.671C734.268 558.385 734.049 562.1 733.546 565.78C730.352 593.109 712.367 613.745 686.328 620.105C681.968 622.882 681.884 618.549 680.773 616.577C662.72 582.597 635.458 560.281 598.309 550.102C566.368 541.354 535.163 543.354 504.971 557.365C498.611 560.323 492.362 563.545 486.918 568.849C490.528 570.155 493.473 569.363 496.375 569.169C509.543 568.508 522.741 569.497 535.663 572.113C541.454 573.196 544.259 576.015 546.065 581.472C554.98 608.343 557.897 636.046 558.563 664.139C558.938 679.553 558.994 694.898 554.828 709.965C554.828 718.852 552.05 727.378 551.383 736.183C550.828 737.044 550.384 737.974 549.995 738.918Z" fill="#212121"/>
<path d="M625.376 404.377C629.459 399.823 625.001 399.003 622.307 397.892C609.433 392.56 595.768 390.185 582.172 387.519C577.756 386.644 573.034 386.825 567.701 384.02C581.711 380.677 595.932 378.293 610.266 376.882C633.875 374.521 657.276 374.285 680.44 380.215C717.353 389.685 741.462 411.529 747.989 450.3C749.669 450.078 750.016 448.773 750.53 447.426C755.64 434.441 756.236 420.116 752.224 406.752C746.419 386.63 733.921 370.744 719.367 356.344C716.45 353.469 713.312 350.192 708.257 350.178C687.05 350.081 666.677 345.387 647.054 337.68C609.141 322.78 582.797 296.812 572.062 256.763C570.951 252.597 567.479 247.765 571.59 243.113C568.604 237.808 570.687 236.53 576.089 236.836C593.296 237.78 610.336 238.974 627.167 243.599C636.486 246.154 645.818 248.459 654.776 252.139C657.553 253.305 659.984 254.791 661.247 257.93C669.816 279.509 685.009 295.659 703.993 308.56C705.479 309.574 707.437 310.226 707.076 312.643L731.351 317.822C742.281 320.155 751.405 320.447 757.21 318.6C756.878 318.29 756.504 318.029 756.099 317.822C717.908 304.2 690.605 279.134 675.676 241.155C674.149 237.266 671.205 235.475 667.761 233.989C640.83 222.4 612.028 215.767 582.741 214.409C559.841 213.256 536.801 212.84 514.123 218.131C511.863 218.651 509.517 218.672 507.248 218.192C504.979 217.713 502.842 216.744 500.986 215.353C458.962 184.969 411.203 169.028 360.805 159.974C326.503 153.836 291.979 149.934 257.01 151.558C255.219 151.642 253.26 152.003 251.858 150.309C245.428 150.392 242.928 153.766 241.775 160.029C234.832 197.815 233.748 235.267 246.428 272.205C251.886 288.105 260.537 302.755 269.356 310.574C266.44 296.493 264.273 283.036 264.315 269.316C264.508 245.246 268.732 221.378 276.814 198.703C278.369 194.218 280.341 191.593 285.882 191.093C313.046 188.636 339.877 189.871 366.346 196.787C373.29 198.62 373.29 198.662 368.152 204.327C336.21 239.96 324.795 281.676 330.864 328.848C335.169 362.315 345.112 393.74 363.027 422.319C375.665 442.482 391.122 460.771 403.079 481.392C410.772 494.668 419.952 507.305 422.799 522.899C431.479 529.259 437.159 538.174 443.63 546.506C461.073 569.003 475.169 592.929 479.085 621.688C480.085 628.979 482.474 636.311 480.029 644.115C477.53 642.56 477.613 640.282 476.807 638.491C473.044 630.159 470.058 621.23 465.475 613.301C450.574 587.5 430.756 565.795 408.536 546.062C385.636 525.802 360.389 508.957 334.933 492.238C314.671 478.934 292.576 468.63 272.953 454.355C240.081 430.484 215.695 400.434 206.098 359.94C205.751 358.552 205.418 357.26 203.696 357.038C195.572 382.034 195.613 407.46 201.21 432.9C210.015 472.963 232.721 503.722 265.301 527.801C286.299 543.354 307.547 558.588 330.503 571.086C353.848 583.82 375.693 598.484 395.413 616.356C435.312 652.461 460.42 696.134 463.753 750.847C463.858 751.558 464.035 752.256 464.281 752.93C470.419 753.444 476.294 753.611 478.988 746.237C479.835 743.973 482.446 743.46 484.64 742.724C498.041 737.988 511.429 733.239 524.761 728.309C531.83 725.685 537.551 720.366 544.842 718.006C546.828 717.353 547.092 714.742 547.828 712.798C549.064 709.562 551.175 707.896 554.772 709.937C558.938 694.912 558.938 679.567 558.508 664.112C557.841 636.019 554.925 608.316 546.009 581.445C544.203 575.988 541.398 573.113 535.607 572.085C522.654 569.457 509.423 568.464 496.222 569.128C493.32 569.322 490.376 570.114 486.765 568.808C492.236 563.503 498.486 560.282 504.819 557.324C535.01 543.312 566.174 541.313 598.156 550.061C635.306 560.24 662.636 582.556 680.62 616.536C681.676 618.508 681.759 622.883 686.175 620.064C686.175 617.286 687.481 615.398 689.147 613.315C704.812 593.776 712.395 571.655 709.979 546.465C709.506 541.438 707.868 538.619 701.841 538.98C682.801 540.16 664.011 538.785 646.374 530.648C628.737 522.51 613.335 511.748 605.767 493.154C594.657 465.867 598.74 439.899 614.835 415.667C617.682 411.321 619.488 405.863 625.376 404.377ZM529.83 485.544C528.297 471.969 523.31 459.012 515.345 447.912C496.472 421.374 472.85 399.448 447.102 379.743C424.257 362.259 407.134 341.777 402.732 311.601C397.954 278.787 425.285 243.057 444.977 232.767C446.463 231.989 448.338 229.99 449.88 231.684C451.171 233.073 449.963 234.822 448.866 236.516C440.715 249.24 436.015 263.864 435.228 278.954C433.756 303.519 443.991 323.183 461.184 339.985C477.224 355.663 493.195 371.424 507.457 388.824C525.303 410.585 536.315 434.719 534.76 463.479C534.547 471.085 532.878 478.58 529.844 485.558L529.83 485.544Z" fill="#C4DFFE"/>
<path d="M625.376 404.377C629.459 399.823 625.001 399.003 622.307 397.892C609.433 392.56 595.768 390.185 582.172 387.519C577.756 386.644 573.034 386.825 567.701 384.02C581.711 380.677 595.932 378.293 610.266 376.882C633.875 374.521 657.276 374.285 680.44 380.215C717.353 389.685 741.462 411.529 747.989 450.3C749.669 450.078 750.016 448.773 750.53 447.426C755.64 434.441 756.236 420.116 752.224 406.752C746.419 386.63 733.921 370.744 719.367 356.344C716.45 353.469 713.312 350.192 708.257 350.178C687.05 350.081 666.677 345.387 647.054 337.68C609.141 322.78 582.797 296.812 572.062 256.763C570.951 252.597 567.479 247.765 571.59 243.113C568.604 237.808 570.687 236.53 576.089 236.836C593.296 237.78 610.336 238.974 627.167 243.599C636.486 246.154 645.818 248.459 654.776 252.139C657.553 253.305 659.984 254.791 661.247 257.93C669.816 279.509 685.009 295.659 703.993 308.56C705.479 309.574 707.437 310.226 707.076 312.643L731.351 317.822C742.281 320.155 751.405 320.447 757.21 318.6C756.878 318.29 756.504 318.029 756.099 317.822C717.908 304.2 690.605 279.134 675.676 241.155C674.149 237.266 671.205 235.475 667.761 233.989C640.83 222.4 612.028 215.767 582.741 214.409C559.841 213.256 536.801 212.84 514.123 218.131C511.863 218.651 509.517 218.672 507.248 218.192C504.979 217.713 502.842 216.744 500.986 215.353C458.962 184.969 411.203 169.028 360.805 159.974C326.503 153.836 291.979 149.934 257.01 151.558C255.219 151.642 253.26 152.003 251.858 150.309C245.428 150.392 242.928 153.766 241.775 160.029C234.832 197.815 233.748 235.267 246.428 272.205C251.886 288.105 260.537 302.755 269.356 310.574C266.44 296.493 264.273 283.036 264.315 269.316C264.508 245.246 268.732 221.378 276.814 198.703C278.369 194.218 280.341 191.593 285.882 191.093C313.046 188.636 339.877 189.871 366.346 196.787C373.29 198.62 373.29 198.662 368.152 204.327C336.21 239.96 324.795 281.676 330.864 328.848C335.169 362.315 345.112 393.74 363.027 422.319C375.665 442.482 391.122 460.771 403.079 481.392C410.772 494.668 419.952 507.305 422.799 522.899C431.479 529.259 437.159 538.174 443.63 546.506C461.073 569.003 475.169 592.929 479.085 621.688C480.085 628.979 482.474 636.311 480.029 644.115C477.53 642.56 477.613 640.282 476.807 638.491C473.044 630.159 470.058 621.23 465.475 613.301C450.574 587.5 430.756 565.795 408.536 546.062C385.636 525.802 360.389 508.957 334.933 492.238C314.671 478.934 292.576 468.63 272.953 454.355C240.081 430.484 215.695 400.434 206.098 359.94C205.751 358.552 205.418 357.26 203.696 357.038C195.572 382.034 195.613 407.46 201.21 432.9C210.015 472.963 232.721 503.722 265.301 527.801C286.299 543.354 307.547 558.588 330.503 571.086C353.848 583.82 375.693 598.484 395.413 616.356C435.312 652.461 460.42 696.134 463.753 750.847C463.858 751.558 464.035 752.256 464.281 752.93C470.419 753.444 476.294 753.611 478.988 746.237C479.835 743.973 482.446 743.46 484.64 742.724C498.041 737.988 511.429 733.239 524.761 728.309C531.83 725.685 537.551 720.366 544.842 718.006C546.828 717.353 547.092 714.742 547.828 712.798C549.064 709.562 551.175 707.896 554.772 709.937C558.938 694.912 558.938 679.567 558.508 664.112C557.841 636.019 554.925 608.316 546.009 581.445C544.203 575.988 541.398 573.113 535.607 572.085C522.654 569.457 509.423 568.464 496.222 569.128C493.32 569.322 490.376 570.114 486.765 568.808C492.236 563.503 498.486 560.282 504.819 557.324C535.01 543.312 566.174 541.313 598.156 550.061C635.306 560.24 662.636 582.556 680.62 616.536C681.676 618.508 681.759 622.883 686.175 620.064C686.175 617.286 687.481 615.398 689.147 613.315C704.812 593.776 712.395 571.655 709.979 546.465C709.506 541.438 707.868 538.619 701.841 538.98C682.801 540.16 664.011 538.785 646.374 530.648C628.737 522.51 613.335 511.748 605.767 493.154C594.657 465.867 598.74 439.899 614.835 415.667C617.682 411.321 619.488 405.863 625.376 404.377ZM529.83 485.544C528.297 471.969 523.31 459.012 515.345 447.912C496.472 421.374 472.85 399.448 447.102 379.743C424.257 362.259 407.134 341.777 402.732 311.601C397.954 278.787 425.285 243.057 444.977 232.767C446.463 231.989 448.338 229.99 449.88 231.684C451.171 233.073 449.963 234.822 448.866 236.516C440.715 249.24 436.015 263.864 435.228 278.954C433.756 303.519 443.991 323.183 461.184 339.985C477.224 355.663 493.195 371.424 507.457 388.824C525.303 410.585 536.315 434.719 534.76 463.479C534.547 471.085 532.878 478.58 529.844 485.558L529.83 485.544Z" fill="url(#paint0_linear)"/>
<path d="M120.454 536.188C116.024 554.241 116.969 572.294 120.607 590.346C127.995 626.909 150.313 653.28 179.212 674.971C205.529 694.732 234.887 709.451 263.482 725.435C282.841 736.266 301.992 747.375 318.726 762.262C336.394 777.98 350.739 797.074 360.917 818.419C361.805 820.252 362.958 821.96 363.986 823.724C373.846 820.947 384.192 819.447 391.761 811.226C393.844 808.921 397.205 807.838 399.857 806.005C409.578 799.311 419.3 792.826 430.979 789.521C436.728 787.897 437.256 781.995 435.451 777.523C423.424 747.931 404.745 723.185 380.401 702.536C346.793 673.971 306.991 656.946 266.815 640.546C237.804 628.715 208.098 618.328 181.629 601.094C157.77 585.569 137.092 566.906 124.287 540.799C123.343 538.966 123.051 536.577 120.454 536.188Z" fill="#C4DFFE"/>
<path d="M120.454 536.188C116.024 554.241 116.969 572.294 120.607 590.346C127.995 626.909 150.313 653.28 179.212 674.971C205.529 694.732 234.887 709.451 263.482 725.435C282.841 736.266 301.992 747.375 318.726 762.262C336.394 777.98 350.739 797.074 360.917 818.419C361.805 820.252 362.958 821.96 363.986 823.724C373.846 820.947 384.192 819.447 391.761 811.226C393.844 808.921 397.205 807.838 399.857 806.005C409.578 799.311 419.3 792.826 430.979 789.521C436.728 787.897 437.256 781.995 435.451 777.523C423.424 747.931 404.745 723.185 380.401 702.536C346.793 673.971 306.991 656.946 266.815 640.546C237.804 628.715 208.098 618.328 181.629 601.094C157.77 585.569 137.092 566.906 124.287 540.799C123.343 538.966 123.051 536.577 120.454 536.188Z" fill="url(#paint1_linear)"/>
<path d="M161.048 776.815C167.853 799.283 178.435 820.058 189.989 840.332C207.398 870.882 228.555 899.138 252.969 924.443C254.705 926.262 256.705 927.818 258.524 929.484C257.552 923.138 260.427 920.18 266.537 918.236C282.022 913.292 296.312 905.738 310.075 896.989C315.032 893.851 321.018 892.24 326.642 890.213C334.614 887.324 335.878 882.811 330.031 876.423C317.129 862.315 303.825 848.65 288.868 836.597C259.843 813.281 228.027 794.937 192.503 783.508C182.365 780.217 172.144 776.273 161.048 776.815Z" fill="#C4DFFE"/>
<path d="M161.048 776.815C167.853 799.283 178.435 820.058 189.989 840.332C207.398 870.882 228.555 899.138 252.969 924.443C254.705 926.262 256.705 927.818 258.524 929.484C257.552 923.138 260.427 920.18 266.537 918.236C282.022 913.292 296.312 905.738 310.075 896.989C315.032 893.851 321.018 892.24 326.642 890.213C334.614 887.324 335.878 882.811 330.031 876.423C317.129 862.315 303.825 848.65 288.868 836.597C259.843 813.281 228.027 794.937 192.503 783.508C182.365 780.217 172.144 776.273 161.048 776.815Z" fill="url(#paint2_linear)"/>
<path d="M662.359 802.991C664.928 773.176 656.804 745.084 648.249 717.13C643.93 703.035 638.722 689.163 630.765 676.567C629.376 677.817 629.57 679.497 629.626 681.081C630.543 712.7 624.071 743.223 615.072 773.204C611.614 784.619 606.517 795.548 601.948 806.532C600.809 809.309 599.837 811.92 602.226 814.156C604.615 816.391 607.489 814.322 608.975 812.85C620.53 801.449 636.542 799.936 650.304 793.52C656.762 790.507 659.054 792.229 659.901 798.505C660.095 800.297 659.859 802.449 662.359 802.991Z" fill="#C4DFFE"/>
<path d="M662.359 802.991C664.928 773.176 656.804 745.084 648.249 717.13C643.93 703.035 638.722 689.163 630.765 676.567C629.376 677.817 629.57 679.497 629.626 681.081C630.543 712.7 624.071 743.223 615.072 773.204C611.614 784.619 606.517 795.548 601.948 806.532C600.809 809.309 599.837 811.92 602.226 814.156C604.615 816.391 607.489 814.322 608.975 812.85C620.53 801.449 636.542 799.936 650.304 793.52C656.762 790.507 659.054 792.229 659.901 798.505C660.095 800.297 659.859 802.449 662.359 802.991Z" fill="url(#paint3_linear)"/>
<path d="M642.041 972.338C638.472 973.726 636.056 976.379 633.709 979.198C652.429 975.823 669.816 968.283 687.315 961.312C701.883 955.507 716.034 948.689 730.019 941.551C734.004 939.524 735.712 937.899 735.421 932.441C734.504 915.153 734.838 897.725 735.199 880.464C735.338 873.715 733.615 867.216 733.643 860.537C733.643 859.44 733.727 857.954 732.254 857.76C730.782 857.565 730.102 859.037 729.713 860.426C725.011 876.365 718.555 891.735 710.465 906.251C695.619 933.691 674.121 954.729 647.818 971.143C646.455 972.026 644.804 972.349 643.208 972.046H643.402C643.083 972.99 642.708 973.393 642.041 972.338Z" fill="#C4DFFE"/>
<path d="M642.041 972.338C638.472 973.726 636.056 976.379 633.709 979.198C652.429 975.823 669.816 968.283 687.315 961.312C701.883 955.507 716.034 948.689 730.019 941.551C734.004 939.524 735.712 937.899 735.421 932.441C734.504 915.153 734.838 897.725 735.199 880.464C735.338 873.715 733.615 867.216 733.643 860.537C733.643 859.44 733.727 857.954 732.254 857.76C730.782 857.565 730.102 859.037 729.713 860.426C725.011 876.365 718.555 891.735 710.465 906.251C695.619 933.691 674.121 954.729 647.818 971.143C646.455 972.026 644.804 972.349 643.208 972.046H643.402C643.083 972.99 642.708 973.393 642.041 972.338Z" fill="url(#paint4_linear)"/>
<path d="M843.729 844.581C840.077 832.694 831.411 824.682 822.009 817.53C819.093 815.322 817.496 817.669 817.093 821.293C814.469 844.678 810.427 867.758 800.748 889.463C799.359 892.587 797.97 895.712 796.581 898.822C807.511 893.559 815.538 884.408 825.051 877.256C830.189 873.396 833.8 867.744 839.369 864.258C841.813 862.731 842.146 860.162 841.952 857.51C841.67 853.124 842.275 848.728 843.729 844.581V844.581Z" fill="#C4DFFE"/>
<path d="M843.729 844.581C840.077 832.694 831.411 824.682 822.009 817.53C819.093 815.322 817.496 817.669 817.093 821.293C814.469 844.678 810.427 867.758 800.748 889.463C799.359 892.587 797.97 895.712 796.581 898.822C807.511 893.559 815.538 884.408 825.051 877.256C830.189 873.396 833.8 867.744 839.369 864.258C841.813 862.731 842.146 860.162 841.952 857.51C841.67 853.124 842.275 848.728 843.729 844.581V844.581Z" fill="url(#paint5_linear)"/>
<path d="M661.484 829.306C663.261 825.668 662.692 821.863 662.22 818.072C658.47 821.53 659.679 825.376 661.484 829.306Z" fill="#C4DFFE"/>
<path d="M540.232 777.787C541.07 776.838 541.69 775.717 542.047 774.503C542.405 773.289 542.491 772.012 542.301 770.76C540.232 772.704 539.038 774.885 540.232 777.787Z" fill="#C4DFFE"/>
<path d="M548.579 745.862C549.179 745.35 549.591 744.654 549.752 743.882C549.913 743.111 549.813 742.307 549.468 741.599C547.246 742.626 546.898 744.029 548.579 745.862Z" fill="#C4DFFE"/>
<path d="M545.648 758.318C546.247 757.828 546.667 757.154 546.846 756.402C547.024 755.649 546.949 754.858 546.634 754.152C544.509 755.082 544.162 756.485 545.648 758.318Z" fill="#C4DFFE"/>
<path d="M660.095 843.193C660.589 842.608 660.918 841.902 661.048 841.148C661.177 840.393 661.102 839.618 660.831 838.902C658.303 839.874 658.04 841.304 660.095 843.193Z" fill="#C4DFFE"/>
<path d="M549.995 738.918C550.412 737.974 550.828 737.044 551.259 736.141C549.523 736.447 548.273 737.016 549.995 738.918Z" fill="#C4DFFE"/>
<path d="M543.037 768.08C543.517 767.794 543.864 767.33 544.002 766.788C544.14 766.247 544.058 765.673 543.773 765.192C542.315 765.845 541.385 766.622 543.037 768.08Z" fill="#C4DFFE"/>
<path d="M658.706 854.302C659.144 853.972 659.445 853.491 659.55 852.953C659.655 852.415 659.557 851.856 659.276 851.386C657.567 851.997 656.845 852.913 658.706 854.302Z" fill="#C4DFFE"/>
<path d="M251.803 150.35C253.191 152.044 255.163 151.739 256.955 151.6C291.924 149.975 326.392 153.877 360.75 160.015C411.148 169.027 458.907 185.011 500.931 215.297C502.787 216.688 504.924 217.657 507.193 218.137C509.462 218.616 511.808 218.595 514.068 218.075C536.746 212.784 559.786 213.201 582.686 214.353C611.973 215.711 640.775 222.344 667.705 233.933C671.15 235.419 674.094 237.211 675.621 241.099C690.55 279.079 717.853 304.144 756.044 317.767C756.449 317.973 756.823 318.234 757.155 318.544C751.35 320.391 742.226 320.099 731.296 317.767L707.021 312.587C703.785 312.462 700.549 312.406 697.3 312.226C655.915 309.893 619.155 296.659 589.561 266.511C582.774 259.326 576.726 251.477 571.507 243.085C567.341 247.737 570.868 252.555 571.979 256.735C582.742 296.784 609.086 322.752 646.971 337.652C666.594 345.373 686.967 350.067 708.174 350.15C713.256 350.15 716.395 353.441 719.284 356.316C733.838 370.716 746.336 386.602 752.141 406.724C756.191 420.086 755.628 434.422 750.544 447.425C750.031 448.814 749.683 450.078 748.003 450.3C749.475 456.174 753.697 452.924 756.113 452.091C767.961 448.036 778.448 440.766 786.402 431.095C788.596 428.48 791.676 426.765 795.054 426.276C827.676 419.333 848.382 398.42 861.714 368.925C863.214 365.578 861.2 363.703 859.367 361.662C851.937 353.455 842.563 347.998 832.883 342.957C821.246 336.902 808.914 332.417 795.22 327.682C803.831 324.279 811.413 323.974 818.829 323.668C833.842 323.057 848.826 323.279 863.158 328.723C864.547 329.278 865.838 329.542 866.797 328.237C868.283 326.182 865.949 325.46 865.088 324.529C853.5 312.514 840.702 301.727 826.898 292.34C803.869 276.628 778.727 264.262 752.225 255.61C749.373 254.748 746.891 252.96 745.17 250.528C709.646 201.578 661.734 170.666 603.809 155.099C555.383 142.074 506.43 143.087 457.518 152.405C450.491 153.794 444.894 150.878 438.742 149.392C411.945 142.834 384.574 138.899 357.014 137.644C321.823 136.172 287.466 139.574 253.719 149.517C253.061 149.747 252.42 150.026 251.803 150.35V150.35Z" fill="#FEFEFE"/>
<path d="M203.696 357.065C205.418 357.288 205.752 358.454 206.099 359.968C215.723 400.433 240.081 430.484 272.981 454.466C292.604 468.783 314.643 479.045 334.961 492.348C360.389 509.012 385.636 525.912 408.565 546.173C430.882 565.906 450.63 587.61 465.503 613.412C470.086 621.341 473.072 630.2 476.836 638.602C477.641 640.393 477.558 642.671 480.058 644.226C482.502 636.422 480.058 629.09 479.113 621.799C475.197 593.04 461.059 569.113 443.658 546.617C437.187 538.285 431.507 529.314 422.827 523.01C397.302 502.472 370.374 483.85 342.946 465.978C323.323 453.147 302.284 442.565 283.744 427.984C255.83 406.016 233.749 379.812 224.958 344.526C222.666 335.402 221.917 325.89 220.167 314.684C212.07 328.834 206.363 342.318 203.696 357.065Z" fill="#FEFEFE"/>
<path d="M625.376 404.377C619.474 405.849 617.669 411.32 614.863 415.583C598.768 439.815 594.699 465.783 605.795 493.07C613.363 511.692 628.848 522.468 646.402 530.564C663.956 538.66 682.829 540.118 701.868 538.896C707.896 538.535 709.534 541.354 710.007 546.381C712.381 571.585 704.799 593.693 689.175 613.231C687.509 615.314 686.189 617.272 686.203 619.98C712.284 613.62 730.268 592.984 733.421 565.656C733.924 561.975 734.143 558.261 734.074 554.546C733.699 543.618 732.157 532.786 736.559 522.024C738.809 516.469 737.434 510.165 735.754 504.291C734.768 500.833 733.657 499.597 730.199 502.402C703.313 524.621 657.831 516.803 634.125 493.681C617.544 477.504 614.919 457.201 617.252 435.358C618.432 424.693 623.64 415.014 625.376 404.377Z" fill="#FEFEFE"/>
<path d="M642.041 972.338C642.736 973.435 643.111 973.032 643.43 972.074C642.952 972.041 642.474 972.132 642.041 972.338Z" fill="#FEFEFE"/>
<path d="M529.844 485.558C532.881 478.585 534.555 471.094 534.774 463.492C536.33 434.733 525.317 410.598 507.471 388.838C493.209 371.438 477.238 355.677 461.198 339.999C444.006 323.196 433.77 303.533 435.243 278.967C436.029 263.878 440.729 249.253 448.88 236.53C449.977 234.836 451.185 233.086 449.894 231.697C448.352 230.045 446.477 232.003 444.992 232.78C425.299 243.07 397.968 278.801 402.746 311.615C407.148 341.79 424.271 362.273 447.116 379.756C472.864 399.461 496.486 421.416 515.359 447.925C523.324 459.026 528.311 471.982 529.844 485.558V485.558Z" fill="#212121"/>
<path d="M571.548 243.112C576.768 251.505 582.816 259.353 589.602 266.539C619.224 296.686 655.929 309.948 697.369 312.253C700.605 312.434 703.841 312.489 707.09 312.614C707.451 310.198 705.493 309.545 704.007 308.532C685.023 295.659 669.886 279.509 661.22 257.929C659.956 254.791 657.581 253.305 654.748 252.138C645.791 248.458 636.458 246.153 627.14 243.598C610.308 238.974 593.268 237.779 576.062 236.835C570.646 236.53 568.562 237.807 571.548 243.112Z" fill="#212121"/>
<defs>
<linearGradient id="paint0_linear" x1="447" y1="97.0002" x2="587" y2="655" gradientUnits="userSpaceOnUse">
<stop stop-color="white" stop-opacity="0"/>
<stop offset="1" stop-color="white"/>
</linearGradient>
<linearGradient id="paint1_linear" x1="17.5" y1="468.5" x2="316" y2="716" gradientUnits="userSpaceOnUse">
<stop stop-color="white" stop-opacity="0"/>
<stop offset="1" stop-color="white"/>
</linearGradient>
<linearGradient id="paint2_linear" x1="141" y1="752" x2="270.5" y2="853" gradientUnits="userSpaceOnUse">
<stop stop-color="white" stop-opacity="0"/>
<stop offset="1" stop-color="white"/>
</linearGradient>
<linearGradient id="paint3_linear" x1="663" y1="622.5" x2="632" y2="795" gradientUnits="userSpaceOnUse">
<stop stop-color="white" stop-opacity="0"/>
<stop offset="1" stop-color="white"/>
</linearGradient>
<linearGradient id="paint4_linear" x1="743.5" y1="756.5" x2="708.5" y2="935.5" gradientUnits="userSpaceOnUse">
<stop stop-color="white" stop-opacity="0"/>
<stop offset="1" stop-color="white"/>
</linearGradient>
<linearGradient id="paint5_linear" x1="844" y1="733.5" x2="820.155" y2="898.822" gradientUnits="userSpaceOnUse">
<stop stop-color="white" stop-opacity="0"/>
<stop offset="1" stop-color="white"/>
</linearGradient>
</defs>
</svg>
